PathFileType	4	(X/Y/Z)	S01_Demo_SingleTrial_0-100.trc
DataRate	CameraRate	NumFrames	NumMarkers	Units	OrigDataRate	OrigDataStartFrame	OrigNumFrames
60	60	7	21	m	60	0	100
Frame#	Time	RHip			RKnee			RAnkle			RBigToe			RSmallToe			RHeel			LHip			LKnee			LAnkle			LBigToe			LSmallToe			LHeel			Neck			Head			Nose			RShoulder			RElbow			RWrist			LShoulder			LElbow			LWrist		
		X1	Y1	Z1	X2	Y2	Z2	X3	Y3	Z3	X4	Y4	Z4	X5	Y5	Z5	X6	Y6	Z6	X7	Y7	Z7	X8	Y8	Z8	X9	Y9	Z9	X10	Y10	Z10	X11	Y11	Z11	X12	Y12	Z12	X13	Y13	Z13	X14	Y14	Z14	X15	Y15	Z15	X16	Y16	Z16	X17	Y17	Z17	X18	Y18	Z18	X19	Y19	Z19	X20	Y20	Z20	X21	Y21	Z21
1	0.016666666666666666	-0.06497214796810755	0.9015045550714222	-1.4005886926185436	-0.03962636621727302	0.49309736508346974	-1.448522825714177	0.04379014014240151	0.14387549822984244	-1.5950846771753306	-0.016908482700287417	0.06441006348542198	-1.446612285669755	-0.02362411324918663	0.07647845076617439	-1.5050009460595857	0.06004531358209037	0.10438957736344667	-1.6358191543053149	0.10414811565622759	0.9087621520330434	-1.4589816545398213	0.0303849122136214	0.5361790123469126	-1.2634902850904257	0.01381981260877819	0.1811557554314031	-1.1375505145455742	-0.022302677625561887	0.09534707105232774	-1.0123924717196522	0.0025963104327097974	0.11352984352003789	-0.9899617326897927	0.023237931913577616	0.1028244811852606	-1.2269060955109106	-0.028751902614113124	1.4640637475385383	-1.396753893205427	-0.056439390963240195	1.7024241363089385	-1.251712918165679	-0.053114849001372276	1.5572683498402282	-1.197034641076441	-0.16750016780382998	1.3929348368739163	-1.4131922619239157	-0.27296943586942385	1.1454816661314946	-1.4797856039000883	-0.3630508137854855	0.9227894097003227	-1.3696832448117422	0.14490455027913587	1.414244460433966	-1.4453750555890645	0.27702490973776667	1.164870633306845	-1.472594655832633	0.35463075113273757	0.9377623867698923	-1.4580889913138002
2	0.03333333333333333	-0.09338341680983347	0.9197883631841397	-1.3331910910334115	-0.04923599668689644	0.5326694045323488	-1.35296917453452	0.0166378398016443	0.17835570675232043	-1.513019134340153	-0.012093657029195772	0.06663714658352331	-1.4516392197935701	-0.023404553656250205	0.067262695424839	-1.5084648927256672	0.061793924642179025	0.11367366986871369	-1.5737226679049379	0.10378868116444062	0.9211640030050295	-1.2931321272002787	0.042987889876879494	0.5846473353024388	-1.129378426935566	0.008489344919238674	0.18716605467423092	-1.122891599627518	-0.030980372391271452	0.13471963336514492	-0.9695248644916719	0.018171710595730584	0.12451749978346062	-0.9832613830574342	0.023053092841738846	0.11375582318455513	-1.1910615194081244	-0.013991522293998217	1.4618635946944771	-1.355015545356272	-0.048936296427530925	1.7135222523505251	-1.2110800562896824	-0.038715092948178195	1.5594882255389044	-1.1849417421469113	-0.16143047429952	1.3994817909133408	-1.3931244642806315	-0.2703519375438398	1.1628560830863264	-1.465176129210751	-0.3608261628109921	0.9589168422423938	-1.3570178526903272	0.15073567846102182	1.4107101783450677	-1.3798182463879296	0.2715098726844047	1.1839040604548428	-1.3765009576073035	0.35827554215590024	0.967977592833193	-1.329858936937576
3	0.05	-0.10272174170671647	0.9281133529700896	-1.3228548536732552	-0.046032492358290066	0.5380382492177046	-1.3381671469646992	0.027853830194559934	0.17516469560442605	-1.5340250977333372	-0.012062132669210888	0.0666701958432541	-1.4516010213717778	-0.023365396348182597	0.06725308842613313	-1.5084612530873005	0.06040214271243132	0.12104902295876774	-1.572001399290279	0.10382861335105836	0.9211441745248692	-1.2933223569375163	0.03315114131171272	0.5895003490356133	-1.1162731906447478	0.009580561670116993	0.1794472353156527	-1.1239159285679814	-0.0276969187959269	0.13042934012651247	-0.9527781251415081	0.019545561847297076	0.11730368708275828	-0.9843792773260176	0.0243353812058988	0.10615155170651196	-1.1925522681741654	-0.011099542282395125	1.4598190275074663	-1.3374650820383724	-0.028119758008203686	1.713454848406699	-1.2246371104670424	-0.008359896355645855	1.5529161750373655	-1.2074851514876386	-0.15834068823371558	1.4078546942941	-1.3786991807335252	-0.266844121895838	1.1659139731820556	-1.451266214658822	-0.3612545603037808	0.9655121474821308	-1.355162968960512	0.15306835125235374	1.4129631722982876	-1.365880586698402	0.2739303556659071	1.180437836009861	-1.3622286255828968	0.35832092795699966	0.9526882272196254	-1.3211398413933146
4	0.06666666666666667	-0.0795439296230709	0.9096293374359681	-1.389244609290294	-0.03713210251578961	0.49381091056484994	-1.445729037216359	0.044032911194802835	0.14733793914524107	-1.5976053717431073	-0.016964738101406408	0.06671069980423441	-1.4477470720364907	-0.02246283811868411	0.07559027390520134	-1.497465659738812	0.060678038302536055	0.11139201849828478	-1.6411313621183155	0.0950924289651021	0.9091666419880844	-1.4453079810610823	0.022670284525114513	0.5311746239282439	-1.24378060651105	0.012477618287321197	0.15598974012676378	-1.1779155751240518	-0.0014063792079010615	0.07481214917657922	-1.0069052733004666	-0.010128614361028356	0.07747107803702999	-1.0346146610495806	0.019811363977349467	0.10052525683246183	-1.2279052501563172	-0.019382923424527066	1.463038440670424	-1.3791180951941204	-0.02843690429571703	1.6997630230455527	-1.2564924101395718	-0.008350811010892032	1.5529532822363696	-1.2071862921954262	-0.150308416420576	1.3976416838682464	-1.4008933474177354	-0.27057256127777235	1.1549205913924554	-1.466556049676751	-0.37215725160229773	0.9666473125255755	-1.3512077253740316	0.1558463306108874	1.4025600139271452	-1.4294131300921604	0.26509027110087857	1.157969015360834	-1.4823932773544997	0.36822164508033045	0.9203508668883812	-1.4150811785860207
5	0.08333333333333333	-0.07711467882528175	0.90538318927635	-1.3866651613657712	-0.04063295878212535	0.49525519909610555	-1.4446187679841886	0.0421220733619969	0.15044343783536063	-1.5951843569547366	-0.015728198837978737	0.06419456675266788	-1.451515453377441	-0.020471815097981294	0.07801017812656436	-1.5064355470996857	0.06069470281547397	0.11153257370886886	-1.6411872603408137	0.09420243912072941	0.9058918220644765	-1.4310073651326156	0.02482330188335506	0.5248436057656723	-1.2310984590091478	0.005213432188831296	0.15441118943124962	-1.1829987600944665	-0.02296163131822364	0.08735595852363692	-1.0034487368145906	-0.0147325522531706	0.07701843748354648	-1.0399660400529156	0.013281789121200163	0.11459434549798288	-1.1775880391426055	-0.008799428398836212	1.4633773263889216	-1.3654630728363557	-0.014635802881559308	1.7025135172309143	-1.2483618307430802	-0.010665909090334458	1.555288287529191	-1.1943574023557768	-0.14299685371711762	1.40410267515284	-1.3901058604689587	-0.29877928924475083	1.1434732058563022	-1.5356233791315863	-0.3774089092565802	0.9758035854861222	-1.3471477218481347	0.16244309328808212	1.402896794612971	-1.4186485072484556	0.2715395232554479	1.154148321937202	-1.4580992698898636	0.3570891806842491	0.9246748308243464	-1.4333204250920133
6	0.1	-0.05454215765855543	0.90626708863914	-1.3805398827356028	-0.041590117912991505	0.49841230610359194	-1.4337186268522466	0.03811038500850984	0.1507115326544595	-1.5940689322863826	-0.01586335009082455	0.06189902292505934	-1.4500169861943957	-0.021859878120592924	0.07621101423472869	-1.5077409561542976	0.057422517597607386	0.11719659453147022	-1.6365933124966623	0.09262131336280638	0.9051600099854635	-1.4161352309053452	-0.008151330879486282	0.5482873461420829	-1.2611252776416824	0.004941382244678468	0.1543072063568834	-1.1831936178293339	-0.0379505504067445	0.07060385659546892	-1.0155631128341098	-0.017649501869669466	0.07495981197822207	-1.0390348743849167	0.007051262254091574	0.10129057093441063	-1.2262387862892745	-0.00018283919190621915	1.4653405801467692	-1.3571284651096507	0.01430301305324839	1.711846272545859	-1.1786718671591994	-0.006612053011874172	1.5576133073185263	-1.1768111908461532	-0.14145973732034595	1.4092474019628363	-1.3768868464654722	-0.30440886919499577	1.1505418714035776	-1.5265098476613823	-0.4399866020753477	1.0064686667151679	-1.4542225617070628	0.15832479905514193	1.4076836337372993	-1.4353101980302707	0.2900461065889042	1.1459427896276984	-1.412105487687984	0.3558359732009637	0.9251647445351693	-1.4200589598687525
7	0.11666666666666667	-0.05611210664642864	0.9046616152981921	-1.3685686555164074	-0.042668781321515165	0.4931591347775862	-1.435717986825	0.02978043390607978	0.14893269434169923	-1.599581919245892	-0.021176874208186834	0.0654195613008854	-1.4409945418860437	-0.0265501383578147	0.07812499386397104	-1.5005042697719675	0.05412696906113142	0.12372102026286422	-1.6429946742855586	0.08535273628661023	0.908974661924694	-1.4114322233085654	0.06647112347008195	0.5112294823019801	-1.1808698028274311	-0.0014333014357312168	0.1530185967285925	-1.1775695286464256	-0.023716952987018296	0.08176885593957314	-1.0104674990804696	-0.014889907986362185	0.067448638183022	-1.0377003952657602	0.008382001743232406	0.11286531198669102	-1.1752406087412668	0.004839187953636276	1.4631324750480124	-1.3434425146181996	0.026314251166962264	1.7127678322398776	-1.1620963995488374	0.0023946521014789708	1.5594688478434195	-1.1571744377559612	-0.13833102799074792	1.4124356593278293	-1.36247502037508	-0.30660673932943994	1.1581602080082365	-1.5212822677681035	-0.396807623683447	1.0117116171694827	-1.315533243514786	0.1578339843103112	1.4087644841940197	-1.4330307626423506	0.2798029575820297	1.1400314848097735	-1.4315065317007822	0.3724084296785931	0.9089262688924775	-1.378043319049644
